<svg xmlns="http://www.w3.org/2000/svg" width="24" height="24" viewBox="0 0 24 24"><path fill="currentColor" d="M20.317 4.37c-1.215-.551-2.519-.956-3.881-1.196a.042.042 0 0 0-.044.021c-.167.301-.351.688-.479 1.002-1.464-.219-2.919-.219-4.341 0-.128-.314-.316-.701-.486-1.002a.042.042 0 0 0-.044-.021c-1.362.24-2.666.645-3.881 1.196-.011.004-.019.014-.023.026C4.747 8.01 3.52 11.536 4.053 15.003c.001.008.006.016.014.02 2.008 1.481 3.953 2.38 5.86 2.973a.043.043 0 0 0 .047-.015c.451-.62.846-1.282 1.182-1.981a.042.042 0 0 0-.023-.058c-.636-.241-1.238-.539-1.801-.88a.043.043 0 0 1-.004-.071c.121-.09.242-.184.359-.279a.043.043 0 0 1 .045-.006c3.851 1.761 8.01 1.761 11.815 0a.043.043 0 0 1 .045.006c.117.095.238.189.359.279a.043.043 0 0 1-.004.071c-.563.342-1.165.64-1.801.881a.042.042 0 0 0-.022.058c.337.699.731 1.36 1.182 1.981a.043.043 0 0 0 .047.015c1.908-.593 3.853-1.492 5.861-2.973a.042.042 0 0 0 .014-.02c.621-4.394-.969-7.884-3.522-10.607-.004-.012-.012-.022-.023-.026zm-11.45 8.95c-1.144 0-2.083-1.054-2.083-2.348 0-1.295.918-2.349 2.083-2.349 1.173 0 2.103 1.054 2.083 2.349 0 1.294-.91 2.348-2.083 2.348zm7.57 0c-1.144 0-2.083-1.054-2.083-2.348 0-1.295.918-2.349 2.083-2.349 1.173 0 2.103 1.054 2.083 2.349 0 1.294-.91 2.348-2.083 2.348z"/></svg>
